<?xml version="1.0" encoding="UTF-8"?>
<svg width="88px" height="70px" viewBox="0 0 88 70" version="1.1" xmlns="http://www.w3.org/2000/svg" xmlns:xlink="http://www.w3.org/1999/xlink">
    <!-- Generator: Sketch 43.2 (39069) - http://www.bohemiancoding.com/sketch -->
    <title>logo full mono</title>
    <desc>Created with Sketch.</desc>
    <defs></defs>
    <g id="Page-1" stroke="none" stroke-width="1" fill="none" fill-rule="evenodd">
        <g id="page_8" transform="translate(-57.000000, -244.000000)">
            <g id="Group" transform="translate(40.000000, 176.000000)">
                <g id="logo-versions" transform="translate(1.000000, 43.000000)">
                    <g id="l1">
                        <g id="logo-full-mono" transform="translate(16.000000, 25.000000)">
                            <g id="icon">
                                <path d="M17.5046571,32.3569698 L18.1292628,32.3408661 C21.2477908,32.1184791 23.6023473,29.4068302 23.388312,26.2842288 L23.2914258,24.8707363 C23.0773905,21.748135 20.3758142,19.3970467 17.2572862,19.6194337 L7.19640658,19.8497938 C6.92822424,19.8154866 6.65483049,19.7977988 6.37729601,19.7977988 C2.85521268,19.7977988 0,22.6464433 0,26.1604243 C0,27.0179219 0.170022142,27.8358001 0.478267259,28.5823328 C0.518741138,28.7642626 0.589395959,28.9414488 0.692990278,29.1124268 C7.7334684,40.7324361 21.2191581,62.9899926 23.4492365,66.6706421 C23.5400223,66.8367664 23.6380142,66.9984067 23.7427932,67.1551449 C23.7576191,67.1796144 23.7651572,67.1920558 23.7651572,67.1920558 C23.7651572,67.1920558 23.7658387,67.1918271 23.767191,67.1913722 C24.9136502,68.8811738 26.8528837,69.9918444 29.0521262,69.9918444 C31.589436,69.9918444 33.7806555,68.5134648 34.8076276,66.3729807 L55.3317162,27.6342693 C56.8024912,24.8763483 55.7524022,21.4518493 52.9862767,19.9854368 L51.7341484,19.321643 C48.968023,17.8552304 45.5333365,18.9022048 44.0625615,21.6601258 L28.5679638,50.7147917 L17.5046571,32.3569698 Z" id="Combined-Shape-Copy" fill="#2196F3"></path>
                                <path d="M86.4271636,9.26601373 L55.8039254,67.0355659 C54.3233734,69.7593248 50.8658548,70.7933305 48.0813415,69.3450822 L46.8208897,68.6895108 C44.0363764,67.2412625 42.9793069,63.8591824 44.4598589,61.1354235 L70.2472009,12.5359411 L36.1862895,12.5417168 L36.2003052,12.5643224 C37.9638074,15.1217771 37.2739378,18.5934128 34.6594382,20.3184377 L33.4759456,21.0992962 C30.861446,22.8243212 27.3123742,22.1495036 25.5488719,19.5920489 L19.1750157,9.37828504 L19.1882427,9.37087722 C18.6618522,8.4591118 18.3614374,7.40580234 18.3614374,6.28381234 C18.3614374,2.81335862 21.2356301,0 24.7811265,0 C24.9295685,0 25.0768338,0.00493156653 25.2227607,0.0146364504 L80.7529023,3.67075341e-05 C80.7602925,1.22423688e-05 80.7676856,0 80.7750816,0 C80.7813024,0 80.7875211,8.6609647e-06 80.7937378,2.59712471e-05 L80.8925195,0 L80.8925186,0.00103032427 C84.3838286,0.0623367798 87.1947707,2.85175716 87.1947707,6.28381234 C87.1947707,7.18955031 86.9989996,8.05053129 86.6466174,8.82842422 L86.6565184,8.83334476 L86.5252514,9.08097487 C86.4935728,9.14324922 86.4608698,9.20493566 86.4271636,9.26601373 Z" id="Combined-Shape" fill="#085695"></path>
                            </g>
                        </g>
                    </g>
                </g>
            </g>
        </g>
    </g>
</svg>